{
  "asset": {
    "copyright": "",
    "generator": "SharpGLTF 1.0.0-alpha0014",
    "version": "2.0"
  },
  "accessors": [
    {
      "bufferView": 0,
      "componentType": 5126,
      "count": 8,
      "max": [
        0.5,
        -2.9999998929497451E-08,
        4.0
      ],
      "min": [
        0.0,
        -0.24999995529651642,
        1.9999999878450581E-08
      ],
      "type": "VEC3"
    },
    {
      "bufferView": 1,
      "componentType": 5126,
      "count": 8,
      "max": [
        1.0,
        0.0,
        1.0
      ],
      "min": [
        -1.0,
        0.0,
        -1.0
      ],
      "type": "VEC3"
    },
    {
      "bufferView": 2,
      "componentType": 5126,
      "count": 8,
      "max": [
        1.0,
        1.0,
        0.031234746798872948,
        1.0
      ],
      "min": [
        -1.0,
        -1.0,
        0.0,
        1.0
      ],
      "type": "VEC4"
    },
    {
      "bufferView": 3,
      "componentType": 5126,
      "count": 8,
      "max": [
        100.0,
        -99.0
      ],
      "min": [
        100.0,
        -99.0
      ],
      "type": "VEC2"
    },
    {
      "bufferView": 4,
      "componentType": 5123,
      "count": 36,
      "type": "SCALAR"
    },
    {
      "bufferView": 5,
      "componentType": 5126,
      "count": 8,
      "max": [
        1.0,
        -2.9999998929497451E-08,
        1.8999998569488525
      ],
      "min": [
        0.0,
        -0.24999995529651642,
        0.0
      ],
      "type": "VEC3"
    },
    {
      "bufferView": 6,
      "componentType": 5126,
      "count": 8,
      "max": [
        1.0,
        0.0,
        1.0
      ],
      "min": [
        -1.0,
        0.0,
        -1.0
      ],
      "type": "VEC3"
    },
    {
      "bufferView": 7,
      "componentType": 5126,
      "count": 8,
      "max": [
        1.0,
        1.0,
        0.06564754992723465,
        1.0
      ],
      "min": [
        -1.0,
        -1.0,
        0.0,
        1.0
      ],
      "type": "VEC4"
    },
    {
      "bufferView": 8,
      "componentType": 5126,
      "count": 8,
      "max": [
        100.0,
        -99.0
      ],
      "min": [
        100.0,
        -99.0
      ],
      "type": "VEC2"
    },
    {
      "bufferView": 9,
      "componentType": 5123,
      "count": 36,
      "type": "SCALAR"
    },
    {
      "bufferView": 10,
      "componentType": 5126,
      "count": 92,
      "max": [
        2.0,
        9.99999993922529E-09,
        2.2999999523162842
      ],
      "min": [
        0.0,
        -0.29999905824661255,
        -9.9999994063182385E-08
      ],
      "type": "VEC3"
    },
    {
      "bufferView": 11,
      "componentType": 5126,
      "count": 92,
      "max": [
        1.0,
        0.0,
        1.0
      ],
      "min": [
        -1.0,
        -1.0,
        -1.0
      ],
      "type": "VEC3"
    },
    {
      "bufferView": 12,
      "componentType": 5126,
      "count": 92,
      "max": [
        1.9530963982106186E-05,
        1.0,
        1.0,
        1.0
      ],
      "min": [
        -8.0871413956629112E-06,
        -1.0,
        -1.0,
        1.0
      ],
      "type": "VEC4"
    },
    {
      "bufferView": 13,
      "componentType": 5126,
      "count": 92,
      "max": [
        1.3500000238418579,
        1.5
      ],
      "min": [
        -0.34999999403953552,
        -0.64999997615814209
      ],
      "type": "VEC2"
    },
    {
      "bufferView": 14,
      "componentType": 5123,
      "count": 138,
      "type": "SCALAR"
    },
    {
      "bufferView": 15,
      "componentType": 5126,
      "count": 8,
      "max": [
        0.49999994039535522,
        -2.9999998929497451E-08,
        4.0
      ],
      "min": [
        -1.9999999878450581E-08,
        -0.24999995529651642,
        1.9999999878450581E-08
      ],
      "type": "VEC3"
    },
    {
      "bufferView": 16,
      "componentType": 5126,
      "count": 8,
      "max": [
        1.0,
        0.0,
        1.0
      ],
      "min": [
        -1.0,
        0.0,
        -1.0
      ],
      "type": "VEC3"
    },
    {
      "bufferView": 17,
      "componentType": 5126,
      "count": 8,
      "max": [
        1.0,
        1.0,
        0.031234746798872948,
        1.0
      ],
      "min": [
        -1.0,
        -1.0,
        0.0,
        1.0
      ],
      "type": "VEC4"
    },
    {
      "bufferView": 18,
      "componentType": 5126,
      "count": 8,
      "max": [
        100.0,
        -99.0
      ],
      "min": [
        100.0,
        -99.0
      ],
      "type": "VEC2"
    },
    {
      "bufferView": 19,
      "componentType": 5123,
      "count": 36,
      "type": "SCALAR"
    },
    {
      "bufferView": 20,
      "componentType": 5126,
      "count": 8,
      "max": [
        2.0,
        -9.99999993922529E-09,
        4.0000004768371582
      ],
      "min": [
        0.0,
        -0.29999995231628418,
        0.0
      ],
      "type": "VEC3"
    },
    {
      "bufferView": 21,
      "componentType": 5126,
      "count": 8,
      "max": [
        1.0,
        0.0,
        1.0
      ],
      "min": [
        -1.0,
        0.0,
        -1.0
      ],
      "type": "VEC3"
    },
    {
      "bufferView": 22,
      "componentType": 5126,
      "count": 8,
      "max": [
        1.0,
        1.0,
        0.14834040403366089,
        1.0
      ],
      "min": [
        -1.0,
        -1.0,
        0.0,
        1.0
      ],
      "type": "VEC4"
    },
    {
      "bufferView": 23,
      "componentType": 5126,
      "count": 8,
      "max": [
        100.0,
        -99.0
      ],
      "min": [
        100.0,
        -99.0
      ],
      "type": "VEC2"
    },
    {
      "bufferView": 24,
      "componentType": 5123,
      "count": 36,
      "type": "SCALAR"
    },
    {
      "bufferView": 25,
      "componentType": 5126,
      "count": 12,
      "max": [
        2.0,
        -0.24999980628490448,
        4.0
      ],
      "min": [
        0.0,
        -0.24999980628490448,
        0.19999997317790985
      ],
      "type": "VEC3"
    },
    {
      "bufferView": 26,
      "componentType": 5126,
      "count": 12,
      "max": [
        0.0,
        -1.0,
        0.0
      ],
      "min": [
        0.0,
        -1.0,
        0.0
      ],
      "type": "VEC3"
    },
    {
      "bufferView": 27,
      "componentType": 5126,
      "count": 12,
      "max": [
        3.6239734413356928E-07,
        0.0,
        -1.0,
        1.0
      ],
      "min": [
        -1.0299673931513098E-06,
        0.0,
        -1.0,
        1.0
      ],
      "type": "VEC4"
    },
    {
      "bufferView": 28,
      "componentType": 5126,
      "count": 12,
      "max": [
        1.5,
        0.39999997615814209
      ],
      "min": [
        0.34999999403953552,
        -1.5
      ],
      "type": "VEC2"
    },
    {
      "bufferView": 29,
      "componentType": 5123,
      "count": 18,
      "type": "SCALAR"
    }
  ],
  "bufferViews": [
    {
      "buffer": 0,
      "byteLength": 96,
      "byteOffset": 6196,
      "byteStride": 12,
      "target": 34962
    },
    {
      "buffer": 0,
      "byteLength": 96,
      "byteOffset": 6292,
      "byteStride": 12,
      "target": 34962
    },
    {
      "buffer": 0,
      "byteLength": 128,
      "byteOffset": 5684,
      "byteStride": 16,
      "target": 34962
    },
    {
      "buffer": 0,
      "byteLength": 96,
      "byteOffset": 6388,
      "byteStride": 12,
      "target": 34962
    },
    {
      "buffer": 0,
      "byteLength": 72,
      "byteOffset": 7348,
      "target": 34963
    },
    {
      "buffer": 0,
      "byteLength": 96,
      "byteOffset": 6484,
      "byteStride": 12,
      "target": 34962
    },
    {
      "buffer": 0,
      "byteLength": 96,
      "byteOffset": 6580,
      "byteStride": 12,
      "target": 34962
    },
    {
      "buffer": 0,
      "byteLength": 128,
      "byteOffset": 5812,
      "byteStride": 16,
      "target": 34962
    },
    {
      "buffer": 0,
      "byteLength": 96,
      "byteOffset": 6676,
      "byteStride": 12,
      "target": 34962
    },
    {
      "buffer": 0,
      "byteLength": 72,
      "byteOffset": 7420,
      "target": 34963
    },
    {
      "buffer": 0,
      "byteLength": 1104,
      "byteOffset": 1472,
      "byteStride": 12,
      "target": 34962
    },
    {
      "buffer": 0,
      "byteLength": 1104,
      "byteOffset": 2576,
      "byteStride": 12,
      "target": 34962
    },
    {
      "buffer": 0,
      "byteLength": 1472,
      "byteStride": 16,
      "target": 34962
    },
    {
      "buffer": 0,
      "byteLength": 1104,
      "byteOffset": 3680,
      "byteStride": 12,
      "target": 34962
    },
    {
      "buffer": 0,
      "byteLength": 276,
      "byteOffset": 4784,
      "target": 34963
    },
    {
      "buffer": 0,
      "byteLength": 96,
      "byteOffset": 6772,
      "byteStride": 12,
      "target": 34962
    },
    {
      "buffer": 0,
      "byteLength": 96,
      "byteOffset": 6868,
      "byteStride": 12,
      "target": 34962
    },
    {
      "buffer": 0,
      "byteLength": 128,
      "byteOffset": 5940,
      "byteStride": 16,
      "target": 34962
    },
    {
      "buffer": 0,
      "byteLength": 96,
      "byteOffset": 6964,
      "byteStride": 12,
      "target": 34962
    },
    {
      "buffer": 0,
      "byteLength": 72,
      "byteOffset": 7492,
      "target": 34963
    },
    {
      "buffer": 0,
      "byteLength": 96,
      "byteOffset": 7060,
      "byteStride": 12,
      "target": 34962
    },
    {
      "buffer": 0,
      "byteLength": 96,
      "byteOffset": 7156,
      "byteStride": 12,
      "target": 34962
    },
    {
      "buffer": 0,
      "byteLength": 128,
      "byteOffset": 6068,
      "byteStride": 16,
      "target": 34962
    },
    {
      "buffer": 0,
      "byteLength": 96,
      "byteOffset": 7252,
      "byteStride": 12,
      "target": 34962
    },
    {
      "buffer": 0,
      "byteLength": 72,
      "byteOffset": 7564,
      "target": 34963
    },
    {
      "buffer": 0,
      "byteLength": 144,
      "byteOffset": 5252,
      "byteStride": 12,
      "target": 34962
    },
    {
      "buffer": 0,
      "byteLength": 144,
      "byteOffset": 5396,
      "byteStride": 12,
      "target": 34962
    },
    {
      "buffer": 0,
      "byteLength": 192,
      "byteOffset": 5060,
      "byteStride": 16,
      "target": 34962
    },
    {
      "buffer": 0,
      "byteLength": 144,
      "byteOffset": 5540,
      "byteStride": 12,
      "target": 34962
    },
    {
      "buffer": 0,
      "byteLength": 36,
      "byteOffset": 7636,
      "target": 34963
    }
  ],
  "buffers": [
    {
      "byteLength": 7672,
      "uri": "zom_dah_doorway_single_2m.bin"
    }
  ],
  "materials": [
    {
      "name": "2963829045612407880"
    },
    {
      "name": "7092887654738189443"
    },
    {
      "name": "7092887654738189443"
    },
    {
      "name": "15801181248778208417"
    },
    {
      "name": "7092887654738189443"
    },
    {
      "name": "7092887654738189443"
    }
  ],
  "meshes": [
    {
      "name": "c_box_002",
      "primitives": [
        {
          "attributes": {
            "POSITION": 0,
            "NORMAL": 1,
            "TANGENT": 2,
            "TEXCOORD_0": 3
          },
          "indices": 4,
          "material": 4
        }
      ]
    },
    {
      "name": "c_box_003",
      "primitives": [
        {
          "attributes": {
            "POSITION": 5,
            "NORMAL": 6,
            "TANGENT": 7,
            "TEXCOORD_0": 8
          },
          "indices": 9,
          "material": 5
        }
      ]
    },
    {
      "name": "g_trim",
      "primitives": [
        {
          "attributes": {
            "POSITION": 10,
            "NORMAL": 11,
            "TANGENT": 12,
            "TEXCOORD_0": 13
          },
          "indices": 14,
          "material": 0
        }
      ]
    },
    {
      "name": "c_box_001",
      "primitives": [
        {
          "attributes": {
            "POSITION": 15,
            "NORMAL": 16,
            "TANGENT": 17,
            "TEXCOORD_0": 18
          },
          "indices": 19,
          "material": 1
        }
      ]
    },
    {
      "name": "co_culling",
      "primitives": [
        {
          "attributes": {
            "POSITION": 20,
            "NORMAL": 21,
            "TANGENT": 22,
            "TEXCOORD_0": 23
          },
          "indices": 24,
          "material": 2
        }
      ]
    },
    {
      "name": "g_main",
      "primitives": [
        {
          "attributes": {
            "POSITION": 25,
            "NORMAL": 26,
            "TANGENT": 27,
            "TEXCOORD_0": 28
          },
          "indices": 29,
          "material": 3
        }
      ]
    }
  ],
  "nodes": [
    {
      "name": "rp_root",
      "children": [
        1,
        3,
        5,
        6,
        7,
        8
      ]
    },
    {
      "name": "6448136676716899300",
      "children": [
        2
      ],
      "matrix": [
        1.0,
        0.0,
        0.0,
        0.0,
        0.0,
        1.0,
        0.0,
        0.0,
        0.0,
        0.0,
        1.0,
        0.0,
        1.5,
        0.0,
        0.0,
        1.0
      ]
    },
    {
      "name": "c_box_002",
      "matrix": [
        1.0,
        0.0,
        0.0,
        0.0,
        0.0,
        1.0,
        0.0,
        0.0,
        0.0,
        0.0,
        1.0,
        0.0,
        0.0,
        0.0,
        0.0,
        0.0
      ],
      "mesh": 0
    },
    {
      "name": "7259076838249964811",
      "children": [
        4
      ],
      "matrix": [
        1.0,
        0.0,
        0.0,
        0.0,
        0.0,
        1.0,
        0.0,
        0.0,
        0.0,
        0.0,
        1.0,
        0.0,
        0.5,
        0.0,
        2.1,
        1.0
      ]
    },
    {
      "name": "c_box_003",
      "matrix": [
        1.0,
        0.0,
        0.0,
        0.0,
        0.0,
        1.0,
        0.0,
        0.0,
        0.0,
        0.0,
        1.0,
        0.0,
        0.0,
        0.0,
        0.0,
        0.0
      ],
      "mesh": 1
    },
    {
      "name": "g_trim",
      "matrix": [
        1.0,
        0.0,
        0.0,
        0.0,
        0.0,
        1.0,
        0.0,
        0.0,
        0.0,
        0.0,
        1.0,
        0.0,
        0.0,
        0.0,
        0.0,
        0.0
      ],
      "mesh": 2
    },
    {
      "name": "c_box_001",
      "matrix": [
        1.0,
        0.0,
        0.0,
        0.0,
        0.0,
        1.0,
        0.0,
        0.0,
        0.0,
        0.0,
        1.0,
        0.0,
        0.0,
        0.0,
        0.0,
        0.0
      ],
      "mesh": 3
    },
    {
      "name": "co_culling",
      "matrix": [
        1.0,
        0.0,
        0.0,
        0.0,
        0.0,
        1.0,
        0.0,
        0.0,
        0.0,
        0.0,
        1.0,
        0.0,
        0.0,
        0.0,
        0.0,
        0.0
      ],
      "mesh": 4
    },
    {
      "name": "g_main",
      "matrix": [
        1.0,
        0.0,
        0.0,
        0.0,
        0.0,
        1.0,
        0.0,
        0.0,
        0.0,
        0.0,
        1.0,
        0.0,
        0.0,
        0.0,
        0.0,
        0.0
      ],
      "mesh": 5
    }
  ],
  "scenes": [
    {
      "extras": {
        "glTF2ExportSettings": {
          "export_extras": 1,
          "export_lights": 1
        }
      },
      "nodes": [
        0
      ]
    }
  ]
}