# Blender v2.79 (sub 0) OBJ File: 'temp.blend'
# www.blender.org
mtllib 1.mtl
o c_convex_001
v 0.000000 -0.000001 0.000000
v 0.000000 -0.000001 400.000000
v 0.000004 -25.000000 0.000000
v 0.000004 -25.000000 400.000000
v -9.567080 -23.096991 0.000000
v -9.567080 -23.096991 400.000000
v -17.677666 -17.677675 0.000000
v -17.677666 -17.677675 400.000000
v -23.096987 -9.567089 0.000000
v -23.096987 -9.567089 400.000000
v -25.000000 0.000000 0.000000
v -25.000000 0.000000 400.000000
vn -0.1951 -0.9808 0.0000
vn -0.5556 -0.8315 0.0000
vn -0.8315 -0.5556 0.0000
vn -0.9808 -0.1951 0.0000
vn 1.0000 0.0000 0.0000
vn 0.0000 0.0000 1.0000
vn 0.0000 0.0000 -1.0000
vn 0.0000 1.0000 0.0000
usemtl None
s off
f 4//1 5//1 3//1
f 6//2 7//2 5//2
f 8//3 9//3 7//3
f 10//4 11//4 9//4
f 2//5 3//5 1//5
f 10//6 8//6 2//6
f 5//7 7//7 1//7
f 1//8 12//8 2//8
f 4//1 6//1 5//1
f 6//2 8//2 7//2
f 8//3 10//3 9//3
f 10//4 12//4 11//4
f 2//5 4//5 3//5
f 4//6 2//6 6//6
f 12//6 10//6 2//6
f 8//6 6//6 2//6
f 11//7 1//7 9//7
f 3//7 5//7 1//7
f 7//7 9//7 1//7
f 1//8 11//8 12//8
o g_trim
v -19.283657 -22.981510 19.999981
v -12.500000 -21.650631 19.999981
v -14.999996 -25.980944 19.999981
v -8.550504 -23.492313 19.999981
v -10.260569 -28.190956 19.999981
v -4.341205 -24.620193 19.999981
v -5.209379 -29.544401 19.999981
v 0.000000 -25.000000 19.999981
v 0.000095 -30.000153 19.999981
v 0.000095 -30.000153 19.999981
v 0.000095 -30.000153 0.000000
v -5.209379 -29.544401 19.999981
v -5.209379 -29.544401 0.000000
v -10.260569 -28.190956 19.999981
v -10.260569 -28.190956 0.000000
v -14.999996 -25.980944 19.999981
v -14.999996 -25.980944 0.000000
v -19.283657 -22.981510 19.999981
v -19.283657 -22.981510 0.000000
v -22.981392 -19.283794 19.999981
v -22.981392 -19.283794 0.000000
v -25.980848 -15.000154 19.999981
v -25.980848 -15.000154 0.000000
v -28.190889 -10.260740 19.999981
v -28.190889 -10.260740 0.000000
v -29.544365 -5.209559 19.999981
v -29.544365 -5.209559 0.000000
v -30.000151 -0.000088 19.999981
v -30.000151 -0.000088 0.000000
v -16.069689 -19.151106 19.999981
v -22.981392 -19.283794 19.999981
v -19.151110 -16.069687 19.999981
v -25.980848 -15.000154 19.999981
v -21.650633 -12.499996 19.999981
v -28.190889 -10.260740 19.999981
v -23.492313 -8.550499 19.999981
v -29.544365 -5.209559 19.999981
v -24.620190 -4.341200 19.999981
v -30.000151 -0.000088 19.999981
v -24.999994 0.000004 19.999981
vt 0.376899 0.478294
vt 0.349999 0.500000
vt 0.352278 0.473952
vt 0.473952 0.600000
vt 0.500000 0.500000
vt 0.473952 0.500000
vt 0.382538 0.457247
vt 0.359046 0.448696
vt 0.448696 0.600000
vt 0.448696 0.500000
vt 0.424999 0.600000
vt 0.424999 0.500000
vt 0.391747 0.437500
vt 0.370096 0.424999
vt 0.403581 0.600000
vt 0.403581 0.500000
vt 0.404244 0.419652
vt 0.385093 0.403581
vt 0.403582 0.600000
vt 0.385093 0.500000
vt 0.403582 0.500000
vt 0.419652 0.404244
vt 0.403582 0.385092
vt 0.425000 0.600000
vt 0.425000 0.500000
vt 0.437500 0.391747
vt 0.425000 0.370095
vt 0.457247 0.382538
vt 0.448697 0.359045
vt 0.448697 0.600000
vt 0.448697 0.500000
vt 0.473953 0.600000
vt 0.473953 0.500000
vt 0.478294 0.376899
vt 0.473953 0.352278
vt 0.500000 0.600000
vt 0.500000 0.500000
vt 0.500000 0.375000
vt 0.500000 0.349999
vt 0.375000 0.500000
vt 0.500000 0.600000
vt 0.385093 0.600000
vn 0.0000 0.0000 1.0000
vn -0.9962 -0.0872 0.0000
vn -0.9659 -0.2588 0.0000
vn -0.9063 -0.4226 0.0000
vn -0.8192 -0.5736 0.0000
vn -0.7071 -0.7071 0.0000
vn -0.5736 -0.8192 0.0000
vn -0.4226 -0.9063 0.0000
vn -0.2588 -0.9659 0.0000
vn -0.0872 -0.9962 0.0000
usemtl mtl_floor_trim
s off
f 50/1/9 51/2/9 49/3/9
f 38/4/10 41/5/10 39/6/10
f 48/7/9 49/3/9 47/8/9
f 36/9/11 39/6/11 37/10/11
f 34/11/12 37/10/12 35/12/12
f 46/13/9 47/8/9 45/14/9
f 32/15/13 35/12/13 33/16/13
f 44/17/9 45/14/9 43/18/9
f 30/19/14 33/20/14 31/21/14
f 42/22/9 43/18/9 13/23/9
f 28/24/15 31/21/15 29/25/15
f 14/26/9 13/23/9 15/27/9
f 16/28/9 15/27/9 17/29/9
f 26/30/16 29/25/16 27/31/16
f 24/32/17 27/31/17 25/33/17
f 18/34/9 17/29/9 19/35/9
f 22/36/18 25/33/18 23/37/18
f 20/38/9 19/35/9 21/39/9
f 50/1/9 52/40/9 51/2/9
f 38/4/10 40/41/10 41/5/10
f 48/7/9 50/1/9 49/3/9
f 36/9/11 38/4/11 39/6/11
f 34/11/12 36/9/12 37/10/12
f 46/13/9 48/7/9 47/8/9
f 32/15/13 34/11/13 35/12/13
f 44/17/9 46/13/9 45/14/9
f 30/19/14 32/42/14 33/20/14
f 42/22/9 44/17/9 43/18/9
f 28/24/15 30/19/15 31/21/15
f 14/26/9 42/22/9 13/23/9
f 16/28/9 14/26/9 15/27/9
f 26/30/16 28/24/16 29/25/16
f 24/32/17 26/30/17 27/31/17
f 18/34/9 16/28/9 17/29/9
f 22/36/18 24/32/18 25/33/18
f 20/38/9 18/34/9 19/35/9
o co_culling
v -30.000002 -30.000002 0.000000
v -30.000002 -30.000002 400.000000
v -30.000002 0.000000 0.000000
v -30.000002 0.000000 400.000000
v 0.000000 -30.000002 0.000000
v 0.000000 -30.000002 400.000000
v 0.000000 0.000000 0.000000
v 0.000000 0.000000 400.000000
vn 1.0000 0.0000 0.0000
vn 0.0000 -1.0000 0.0000
vn -1.0000 0.0000 0.0000
vn 0.0000 1.0000 0.0000
vn 0.0000 0.0000 1.0000
vn 0.0000 0.0000 -1.0000
usemtl None
s off
f 55//19 54//19 53//19
f 59//20 56//20 55//20
f 57//21 60//21 59//21
f 53//22 58//22 57//22
f 53//23 59//23 55//23
f 58//24 56//24 60//24
f 55//19 56//19 54//19
f 59//20 60//20 56//20
f 57//21 58//21 60//21
f 53//22 54//22 58//22
f 53//23 57//23 59//23
f 58//24 54//24 56//24
o g_main
v -0.000167 0.000000 19.999981
v -0.000215 0.000000 400.000000
v -0.000164 0.000029 19.999981
v -0.000157 0.000057 19.999981
v -0.000145 0.000083 19.999981
v -0.000128 0.000107 19.999981
v -0.000107 0.000128 19.999981
v -0.000083 0.000145 19.999981
v -0.000057 0.000157 19.999981
v -0.000029 0.000164 19.999981
v 0.000000 0.000167 19.999981
v 0.000000 -24.999943 400.000000
v 0.000000 -25.000000 19.999981
v -4.341195 -24.620138 400.000000
v -4.341205 -24.620193 19.999981
v -8.550486 -23.492262 400.000000
v -8.550504 -23.492313 19.999981
v -12.499972 -21.650585 400.000000
v -12.500000 -21.650631 19.999981
v -16.069654 -19.151066 400.000000
v -16.069689 -19.151106 19.999981
v -19.151068 -16.069653 400.000000
v -19.151110 -16.069687 19.999981
v -21.650585 -12.499969 400.000000
v -21.650633 -12.499996 19.999981
v -23.492260 -8.550482 400.000000
v -23.492313 -8.550499 19.999981
v -24.620134 -4.341192 400.000000
v -24.620190 -4.341200 19.999981
v -24.999941 0.000002 400.000000
v -24.999994 0.000004 19.999981
vt 0.500000 0.600000
vt 0.500000 2.500000
vt 0.500000 0.600000
vt 0.500000 0.600000
vt 0.500000 0.600000
vt 0.500001 0.600000
vt 0.499999 0.600000
vt 0.500000 0.600000
vt 0.500000 0.600000
vt 0.500000 0.600000
vt 0.500000 0.600000
vt 0.500000 2.500000
vt 0.478294 0.600000
vt 0.500000 0.600000
vt 0.478294 2.500000
vt 0.457247 0.600000
vt 0.457248 2.500000
vt 0.437500 0.600000
vt 0.437500 2.500000
vt 0.419652 0.600000
vt 0.404245 2.500000
vt 0.419652 0.600000
vt 0.404244 0.600000
vt 0.419652 2.500000
vt 0.437500 0.600000
vt 0.437500 2.500000
vt 0.457247 0.600000
vt 0.457248 2.500000
vt 0.478294 0.600000
vt 0.478294 2.500000
vt 0.500000 0.600000
vt 0.419652 2.500000
vt 0.500000 2.500000
vn -0.9962 0.0872 -0.0000
vn -0.9659 0.2588 -0.0000
vn -0.9063 0.4226 -0.0000
vn -0.8192 0.5736 -0.0000
vn -0.7071 0.7071 0.0000
vn -0.5736 0.8192 0.0000
vn -0.4226 0.9063 0.0000
vn -0.2588 0.9659 0.0000
vn -0.0872 0.9962 0.0000
vn -0.0872 -0.9962 0.0000
vn -0.2588 -0.9659 0.0000
vn -0.4226 -0.9063 0.0000
vn -0.5736 -0.8192 0.0000
vn -0.7071 -0.7071 0.0000
vn -0.8192 -0.5736 0.0000
vn -0.9063 -0.4226 0.0000
vn -0.9659 -0.2588 0.0000
vn -0.9962 -0.0872 0.0000
usemtl mtl_wall_01
s off
f 61/43/25 62/44/25 63/45/25
f 63/45/26 62/44/26 64/46/26
f 64/46/27 62/44/27 65/47/27
f 65/47/28 62/44/28 66/48/28
f 66/48/29 62/44/29 67/49/29
f 67/49/30 62/44/30 68/50/30
f 68/50/31 62/44/31 69/51/31
f 69/51/32 62/44/32 70/52/32
f 70/52/33 62/44/33 71/53/33
f 72/54/34 75/55/34 73/56/34
f 74/57/35 77/58/35 75/55/35
f 76/59/36 79/60/36 77/58/36
f 78/61/37 81/62/37 79/60/37
f 80/63/38 83/64/38 81/65/38
f 82/66/39 85/67/39 83/64/39
f 84/68/40 87/69/40 85/67/40
f 86/70/41 89/71/41 87/69/41
f 88/72/42 91/73/42 89/71/42
f 72/54/34 74/57/34 75/55/34
f 74/57/35 76/59/35 77/58/35
f 76/59/36 78/61/36 79/60/36
f 78/61/37 80/74/37 81/62/37
f 80/63/38 82/66/38 83/64/38
f 82/66/39 84/68/39 85/67/39
f 84/68/40 86/70/40 87/69/40
f 86/70/41 88/72/41 89/71/41
f 88/72/42 90/75/42 91/73/42
