# Blender v2.79 (sub 0) OBJ File: 'zom_dah_doorway_elevator_4m.blend'
# www.blender.org
mtllib zom_dah_doorway_elevator_4m.mtl
o g_trim
v 55.000019 -24.999983 300.000000
v 55.000019 -29.999907 300.000000
v 345.000061 -29.999907 300.000000
v 325.000000 -29.999907 280.000000
v 325.000000 0.000000 0.000000
v 325.000000 0.000000 280.000000
v 55.000019 -24.999983 19.999998
v 55.000019 -29.999907 19.999998
v 75.000000 -29.999907 0.000000
v 55.000019 -24.999983 300.000000
v 55.000019 -29.999907 300.000000
v 75.000000 -29.999907 280.000000
v 75.000000 0.000000 280.000000
v 55.000019 -24.999983 20.000004
v 55.000019 -29.999907 20.000004
v 345.000061 -24.999983 19.999998
v 345.000061 -29.999907 19.999998
v 325.000000 -29.999907 0.000000
v 345.000061 -24.999983 300.000000
v 345.000061 -24.999983 300.000000
v 345.000061 -29.999907 300.000000
v 325.000000 -29.999907 280.000000
v 325.000000 0.000000 280.000000
v 75.000000 0.000000 -0.000010
v 75.000000 -29.999907 -0.000010
v 0.000000 -24.999983 19.999998
v 0.000000 -29.999907 19.999998
v 0.000000 -29.999907 0.000000
v 345.000061 -24.999983 19.999998
v 345.000061 -29.999907 19.999998
v 325.000000 -29.999907 0.000000
v 400.000000 -24.999983 19.999998
v 400.000000 -29.999907 19.999998
v 400.000000 -29.999907 0.000000
v 75.000000 -29.999907 280.000000
v 75.000000 0.000000 280.000000
v 200.000000 -24.999996 339.999969
v 210.352798 -24.999996 338.637054
v 219.999985 -24.999996 334.640991
v 228.284271 -25.000000 328.284271
v 234.640976 -25.000000 319.999969
v 238.637070 -25.000000 310.352814
v 239.999969 -25.000000 300.000000
v 239.999969 -30.000002 300.000000
v 159.999985 -25.000000 300.000000
v 159.999985 -30.000002 300.000000
v 161.362976 -25.000000 310.352722
v 165.358978 -25.000000 319.999969
v 171.715683 -25.000000 328.284271
v 179.999969 -24.999996 334.640991
v 189.647202 -24.999996 338.637054
v 210.352798 -29.999996 338.637054
v 200.000000 -29.999996 339.999969
v 219.999985 -29.999998 334.640991
v 228.284271 -29.999998 328.284271
v 234.640976 -29.999998 319.999969
v 238.637070 -29.999998 310.352814
v 161.362976 -29.999998 310.352722
v 165.358978 -30.000002 319.999969
v 171.715683 -29.999998 328.284271
v 179.999969 -29.999998 334.640991
v 189.647202 -29.999996 338.637054
v 188.000000 -25.000000 305.000000
v 212.000015 -25.000000 305.000000
v 212.000015 -25.000000 319.000061
v 188.000015 -25.000000 318.999969
v 187.500015 -29.999998 319.499969
v 188.000015 -29.499998 318.999969
v 212.000015 -29.499998 319.000061
v 212.500031 -29.999998 319.500061
v 188.000000 -29.500002 305.000000
v 187.500000 -30.000002 304.499969
v 212.500031 -30.000002 304.499969
v 212.000015 -29.500002 305.000000
v 239.999969 -30.000002 300.000000
v 159.999985 -30.000002 300.000000
v 210.352798 -29.999996 338.637054
v 200.000000 -29.999996 339.999969
v 219.999985 -29.999998 334.640991
v 228.284271 -29.999998 328.284271
v 234.640976 -29.999998 319.999969
v 238.637070 -29.999998 310.352814
v 161.362976 -29.999998 310.352722
v 165.358978 -30.000002 319.999969
v 171.715683 -29.999998 328.284271
v 179.999969 -29.999998 334.640991
v 189.647202 -29.999996 338.637054
v 187.500015 -29.999998 319.499969
v 212.500031 -29.999998 319.500061
v 187.500000 -30.000002 304.499969
v 212.500031 -30.000002 304.499969
vt 0.125000 0.350000
vt -1.125000 0.500000
vt 0.125000 0.500000
vt 0.225000 0.375000
vt -1.225000 0.350000
vt 0.225000 0.350000
vt 0.125000 0.900000
vt -1.225000 1.000000
vt -1.125000 0.900000
vt 0.375000 0.600000
vt 0.350000 2.000000
vt 0.350000 0.600000
vt 0.225000 0.600000
vt 0.125000 1.900000
vt 0.125000 0.500000
vt 0.350000 1.900000
vt 0.500000 0.500000
vt 0.350000 0.500000
vt 0.775000 0.350000
vt 0.500000 0.375000
vt 0.500000 0.350000
vt 0.500000 0.500000
vt 0.775000 0.600000
vt 0.500000 0.600000
vt 0.375000 0.000000
vt 0.350000 -1.400000
vt 0.350000 0.000000
vt 0.875000 0.900000
vt 0.775000 -0.400000
vt 0.875000 -0.500000
vt 0.350000 0.900000
vt 0.500000 -0.500000
vt 0.500000 0.900000
vt 0.500000 0.350000
vt 0.225000 0.375000
vt 0.225000 0.350000
vt 0.500000 0.500000
vt 0.225000 0.600000
vt 0.125000 0.500000
vt 0.500000 0.350000
vt 0.551764 0.375000
vt 0.500000 0.375000
vt 0.551764 0.350000
vt 0.600000 0.375000
vt 0.600000 0.350000
vt 0.641421 0.375000
vt 0.350000 0.141421
vt 0.375000 0.100000
vt 0.375000 0.141421
vt 0.350000 0.100000
vt 0.375000 0.051764
vt 0.350000 0.051764
vt 0.375000 0.000000
vt 0.375000 0.000000
vt 0.350000 0.051764
vt 0.375000 0.051764
vt 0.375000 0.100000
vt 0.350000 0.141421
vt 0.375000 0.141421
vt 0.358578 0.375000
vt 0.400000 0.350000
vt 0.400000 0.375000
vt 0.448236 0.350000
vt 0.448236 0.375000
vt 0.562500 0.097500
vt 0.693185 0.051764
vt 0.673205 0.100000
vt 0.437500 0.022500
vt 0.700000 0.000000
vt 0.562500 0.022500
vt 0.560000 0.352500
vt 0.440000 0.375000
vt 0.440000 0.352500
vt 0.306815 0.051764
vt 0.300000 0.000000
vt 0.500000 0.200000
vt 0.437500 0.097500
vt 0.352500 0.095000
vt 0.375000 0.025000
vt 0.352500 0.025000
vt 0.600000 0.173205
vt 0.551764 0.193185
vt 0.448236 0.193185
vt 0.400000 0.173205
vt 0.358578 0.141421
vt 0.326795 0.100000
vt 0.352500 0.025000
vt 0.375000 0.095000
vt 0.352500 0.095000
vt 0.641421 0.141421
vt 0.437500 0.022500
vt 0.560000 0.025000
vt 0.440000 0.025000
vt 0.437500 0.097500
vt 0.560000 0.095000
vt 0.562500 0.097500
vt 0.562500 0.022500
vt 0.440000 0.095000
vt 0.440000 0.352500
vt 0.560000 0.375000
vt 0.560000 0.352500
vt -1.125000 0.350000
vt -1.225000 0.375000
vt 0.225000 1.000000
vt 0.375000 2.000000
vt 0.225000 2.000000
vt 0.500000 1.900000
vt 0.775000 0.375000
vt 0.875000 0.500000
vt 0.375000 -1.400000
vt 0.775000 1.000000
vt 0.350000 -0.500000
vt 0.500000 0.375000
vt 0.500000 0.600000
vt 0.641421 0.350000
vt 0.350000 0.000000
vt 0.350000 0.000000
vt 0.350000 0.100000
vt 0.358578 0.350000
vt 0.560000 0.375000
vt 0.375000 0.095000
vt 0.375000 0.025000
vt 0.440000 0.375000
vn 0.0000 0.0000 -1.0000
vn 0.0000 0.0000 1.0000
vn 0.0000 -1.0000 0.0000
vn 1.0000 0.0000 0.0000
vn -1.0000 0.0000 0.0000
vn 0.1305 0.0000 0.9914
vn 0.3827 0.0000 0.9239
vn 0.6088 0.0000 0.7934
vn 0.7934 0.0000 0.6088
vn 0.9239 0.0000 0.3827
vn 0.9914 0.0000 0.1305
vn -0.9914 0.0000 0.1305
vn -0.9239 0.0000 0.3827
vn -0.7934 0.0000 0.6088
vn -0.6088 0.0000 0.7934
vn -0.3827 0.0000 0.9239
vn -0.1305 0.0000 0.9914
vn 0.0000 -0.7071 0.7071
vn 0.0000 -0.7071 -0.7071
vn -0.7071 -0.7071 0.0000
vn 0.7071 -0.7071 -0.0000
usemtl mtl_floor_trim
s off
f 22/1/1 36/2/1 23/3/1
f 20/4/2 2/5/2 21/6/2
f 22/7/3 2/8/3 35/9/3
f 16/10/4 3/11/4 17/12/4
f 17/13/3 4/14/3 18/15/3
f 4/16/5 5/17/5 18/18/5
f 8/19/2 26/20/2 27/21/2
f 28/22/3 8/23/3 27/24/3
f 10/25/5 15/26/5 11/27/5
f 12/28/3 15/29/3 25/30/3
f 12/31/4 24/32/4 13/33/4
f 33/34/2 29/35/2 30/36/2
f 34/37/3 30/38/3 31/39/3
f 53/40/6 38/41/6 37/42/6
f 52/43/7 39/44/7 38/41/7
f 54/45/8 40/46/8 39/44/8
f 55/47/9 41/48/9 40/49/9
f 56/50/10 42/51/10 41/48/10
f 57/52/11 43/53/11 42/51/11
f 45/54/12 58/55/12 47/56/12
f 58/55/13 48/57/13 47/56/13
f 48/57/14 60/58/14 49/59/14
f 49/60/15 61/61/15 50/62/15
f 50/62/16 62/63/16 51/64/16
f 62/63/17 37/42/17 51/64/17
f 89/65/3 82/66/3 81/67/3
f 90/68/3 75/69/3 91/70/3
f 74/71/2 63/72/2 71/73/2
f 90/68/3 83/74/3 76/75/3
f 89/65/3 78/76/3 88/77/3
f 69/78/5 64/79/5 74/80/5
f 89/65/3 79/81/3 77/82/3
f 88/77/3 87/83/3 86/84/3
f 88/77/3 86/84/3 85/85/3
f 88/77/3 85/85/3 84/86/3
f 88/77/3 84/86/3 83/74/3
f 71/87/4 66/88/4 68/89/4
f 89/65/3 81/67/3 80/90/3
f 89/65/3 80/90/3 79/81/3
f 91/70/3 82/66/3 89/65/3
f 88/77/3 78/76/3 87/83/3
f 72/91/18 74/92/18 71/93/18
f 67/94/19 69/95/19 70/96/19
f 70/96/20 74/92/20 73/97/20
f 67/94/21 71/93/21 68/98/21
f 68/99/1 65/100/1 69/101/1
f 22/1/1 35/102/1 36/2/1
f 20/4/2 1/103/2 2/5/2
f 22/7/3 21/104/3 2/8/3
f 16/10/4 19/105/4 3/11/4
f 17/13/3 3/106/3 4/14/3
f 4/16/5 6/107/5 5/17/5
f 8/19/2 7/108/2 26/20/2
f 28/22/3 9/109/3 8/23/3
f 10/25/5 14/110/5 15/26/5
f 12/28/3 11/111/3 15/29/3
f 12/31/4 25/112/4 24/32/4
f 33/34/2 32/113/2 29/35/2
f 34/37/3 33/114/3 30/38/3
f 53/40/6 52/43/6 38/41/6
f 52/43/7 54/45/7 39/44/7
f 54/45/8 55/115/8 40/46/8
f 55/47/9 56/50/9 41/48/9
f 56/50/10 57/52/10 42/51/10
f 57/52/11 44/116/11 43/53/11
f 45/54/12 46/117/12 58/55/12
f 58/55/13 59/118/13 48/57/13
f 48/57/14 59/118/14 60/58/14
f 49/60/15 60/119/15 61/61/15
f 50/62/16 61/61/16 62/63/16
f 62/63/17 53/40/17 37/42/17
f 90/68/3 76/75/3 75/69/3
f 74/71/2 64/120/2 63/72/2
f 90/68/3 88/77/3 83/74/3
f 89/65/3 77/82/3 78/76/3
f 69/78/5 65/121/5 64/79/5
f 71/87/4 63/122/4 66/88/4
f 91/70/3 75/69/3 82/66/3
f 72/91/18 73/97/18 74/92/18
f 67/94/19 68/98/19 69/95/19
f 70/96/20 69/95/20 74/92/20
f 67/94/21 72/91/21 71/93/21
f 68/99/1 66/123/1 65/100/1
o c_box_003
v 0.000004 -25.000000 0.000000
v 0.000004 -25.000000 120.000008
v 0.000004 0.000000 0.000000
v 0.000004 0.000000 120.000008
v 250.000031 -25.000000 0.000000
v 250.000031 -25.000000 120.000008
v 250.000031 0.000000 0.000000
v 250.000031 0.000000 120.000008
vn -1.0000 0.0000 0.0000
vn 0.0000 1.0000 0.0000
vn 1.0000 0.0000 0.0000
vn 0.0000 -1.0000 0.0000
vn 0.0000 0.0000 -1.0000
vn 0.0000 0.0000 1.0000
usemtl None
s off
f 93//22 94//22 92//22
f 95//23 98//23 94//23
f 99//24 96//24 98//24
f 97//25 92//25 96//25
f 98//26 92//26 94//26
f 95//27 97//27 99//27
f 93//22 95//22 94//22
f 95//23 99//23 98//23
f 99//24 97//24 96//24
f 97//25 93//25 92//25
f 98//26 96//26 92//26
f 95//27 93//27 97//27
o c_box_002
v 0.000004 -25.000000 0.000000
v 0.000004 -25.000000 400.000000
v 0.000004 0.000000 0.000000
v 0.000004 0.000000 400.000000
v 75.000023 -25.000000 0.000000
v 75.000023 -25.000000 400.000000
v 75.000023 0.000000 0.000000
v 75.000023 0.000000 400.000000
vn -1.0000 0.0000 0.0000
vn 0.0000 1.0000 0.0000
vn 1.0000 0.0000 0.0000
vn 0.0000 -1.0000 0.0000
vn 0.0000 0.0000 -1.0000
vn 0.0000 0.0000 1.0000
usemtl None
s off
f 101//28 102//28 100//28
f 103//29 106//29 102//29
f 107//30 104//30 106//30
f 105//31 100//31 104//31
f 106//32 100//32 102//32
f 103//33 105//33 107//33
f 101//28 103//28 102//28
f 103//29 107//29 106//29
f 107//30 105//30 104//30
f 105//31 101//31 100//31
f 106//32 104//32 100//32
f 103//33 101//33 105//33
o c_box_001
v 0.000004 -25.000000 0.000000
v 0.000004 -25.000000 400.000000
v 0.000004 0.000000 0.000000
v 0.000004 0.000000 400.000000
v 75.000023 -25.000000 0.000000
v 75.000023 -25.000000 400.000000
v 75.000023 0.000000 0.000000
v 75.000023 0.000000 400.000000
vn -1.0000 0.0000 0.0000
vn 0.0000 1.0000 0.0000
vn 1.0000 0.0000 0.0000
vn 0.0000 -1.0000 0.0000
vn 0.0000 0.0000 -1.0000
vn 0.0000 0.0000 1.0000
usemtl None
s off
f 109//34 110//34 108//34
f 111//35 114//35 110//35
f 115//36 112//36 114//36
f 113//37 108//37 112//37
f 114//38 108//38 110//38
f 111//39 113//39 115//39
f 109//34 111//34 110//34
f 111//35 115//35 114//35
f 115//36 113//36 112//36
f 113//37 109//37 108//37
f 114//38 112//38 108//38
f 111//39 109//39 113//39
o co_culling
v 0.000000 -29.999998 0.000002
v 0.000000 -29.999998 400.000000
v 0.000000 -0.000001 0.000002
v 0.000000 -0.000001 400.000000
v 400.000000 -29.999998 0.000002
v 400.000000 -29.999998 400.000000
v 400.000000 -0.000001 0.000002
v 400.000000 -0.000001 400.000000
vn 1.0000 0.0000 0.0000
vn 0.0000 -1.0000 0.0000
vn -1.0000 0.0000 0.0000
vn 0.0000 1.0000 0.0000
vn 0.0000 0.0000 1.0000
vn 0.0000 0.0000 -1.0000
usemtl None
s off
f 118//40 117//40 116//40
f 122//41 119//41 118//41
f 120//42 123//42 122//42
f 116//43 121//43 120//43
f 116//44 122//44 118//44
f 121//45 119//45 123//45
f 118//40 119//40 117//40
f 122//41 123//41 119//41
f 120//42 121//42 123//42
f 116//43 117//43 121//43
f 116//44 120//44 122//44
f 121//45 117//45 119//45
o g_wall
v 0.000000 -24.999983 19.999998
v 0.000000 -24.999983 400.000000
v 55.000011 -24.999983 19.999998
v 345.000061 -24.999983 19.999998
v 400.000000 -24.999983 400.000000
v 400.000000 -24.999983 19.999998
v 55.000011 -24.999983 299.999969
v 345.000061 -24.999983 299.999969
vt 0.500000 0.600000
vt 0.775000 2.000000
vt 0.500000 2.500000
vt 0.500000 0.600000
vt 0.225000 2.000000
vt 0.225000 0.600000
vt 0.775000 1.000000
vt 2.500000 1.500000
vt 0.500000 1.500000
vt 0.775000 0.600000
vt 0.500000 2.500000
vt 2.225000 1.000000
vn 0.0000 -1.0000 0.0000
usemtl mtl_wall_01
s off
f 124/124/46 130/125/46 125/126/46
f 129/127/46 131/128/46 127/129/46
f 130/130/46 128/131/46 125/132/46
f 124/124/46 126/133/46 130/125/46
f 129/127/46 128/134/46 131/128/46
f 130/130/46 131/135/46 128/131/46
