# Blender v2.79 (sub 0) OBJ File: 'zom_int_flesh_basement_wall_support_4m.blend'
# www.blender.org
mtllib zom_int_flesh_basement_wall_support_4m.mtl
o c_box_009
v -20.000004 -4.000000 0.000000
v -20.000004 -4.000000 540.000000
v -20.000004 0.000000 0.000000
v -20.000004 0.000000 540.000000
v 0.000004 -4.000000 0.000000
v 0.000004 -4.000000 540.000000
v 0.000004 0.000000 0.000000
v 0.000004 0.000000 540.000000
vn -1.0000 0.0000 0.0000
vn 0.0000 1.0000 0.0000
vn 1.0000 0.0000 0.0000
vn 0.0000 -1.0000 0.0000
vn 0.0000 0.0000 -1.0000
vn 0.0000 0.0000 1.0000
usemtl None
s off
f 2//1 3//1 1//1
f 4//2 7//2 3//2
f 8//3 5//3 7//3
f 6//4 1//4 5//4
f 7//5 1//5 3//5
f 4//6 6//6 8//6
f 2//1 4//1 3//1
f 4//2 8//2 7//2
f 8//3 6//3 5//3
f 6//4 2//4 1//4
f 7//5 5//5 1//5
f 4//6 2//6 6//6
o c_box_008
v 0.000000 -4.000000 0.000000
v 0.000000 -4.000000 540.000000
v 0.000000 0.000000 0.000000
v 0.000000 0.000000 540.000000
v 20.000010 -4.000000 0.000000
v 20.000010 -4.000000 540.000000
v 20.000010 0.000000 0.000000
v 20.000010 0.000000 540.000000
vn -1.0000 0.0000 0.0000
vn 0.0000 1.0000 0.0000
vn 1.0000 0.0000 0.0000
vn 0.0000 -1.0000 0.0000
vn 0.0000 0.0000 -1.0000
vn 0.0000 0.0000 1.0000
usemtl None
s off
f 10//7 11//7 9//7
f 12//8 15//8 11//8
f 16//9 13//9 15//9
f 14//10 9//10 13//10
f 15//11 9//11 11//11
f 12//12 14//12 16//12
f 10//7 12//7 11//7
f 12//8 16//8 15//8
f 16//9 14//9 13//9
f 14//10 10//10 9//10
f 15//11 13//11 9//11
f 12//12 10//12 14//12
o c_box_007
v 0.000000 -9.999996 0.000000
v 0.000000 -9.999996 400.000000
v 0.000000 0.000000 0.000000
v 0.000000 0.000000 400.000000
v 10.000010 -9.999996 0.000000
v 10.000010 -9.999996 400.000000
v 10.000010 0.000000 0.000000
v 10.000010 0.000000 400.000000
vn -1.0000 0.0000 0.0000
vn 0.0000 1.0000 0.0000
vn 1.0000 0.0000 0.0000
vn 0.0000 -1.0000 0.0000
vn 0.0000 0.0000 -1.0000
vn 0.0000 0.0000 1.0000
usemtl None
s off
f 18//13 19//13 17//13
f 20//14 23//14 19//14
f 24//15 21//15 23//15
f 22//16 17//16 21//16
f 23//17 17//17 19//17
f 20//18 22//18 24//18
f 18//13 20//13 19//13
f 20//14 24//14 23//14
f 24//15 22//15 21//15
f 22//16 18//16 17//16
f 23//17 21//17 17//17
f 20//18 18//18 22//18
o c_box_006
v 0.000000 -9.999996 0.000000
v 0.000000 -9.999996 400.000000
v 0.000000 0.000000 0.000000
v 0.000000 0.000000 400.000000
v 10.000010 -9.999996 0.000000
v 10.000010 -9.999996 400.000000
v 10.000010 0.000000 0.000000
v 10.000010 0.000000 400.000000
vn -1.0000 0.0000 0.0000
vn 0.0000 1.0000 0.0000
vn 1.0000 0.0000 0.0000
vn 0.0000 -1.0000 0.0000
vn 0.0000 0.0000 -1.0000
vn 0.0000 0.0000 1.0000
usemtl None
s off
f 26//19 27//19 25//19
f 28//20 31//20 27//20
f 32//21 29//21 31//21
f 30//22 25//22 29//22
f 31//23 25//23 27//23
f 28//24 30//24 32//24
f 26//19 28//19 27//19
f 28//20 32//20 31//20
f 32//21 30//21 29//21
f 30//22 26//22 25//22
f 31//23 29//23 25//23
f 28//24 26//24 30//24
o c_box_005
v 0.000000 -9.999996 0.000000
v 0.000000 -9.999996 400.000000
v 0.000000 0.000000 0.000000
v 0.000000 0.000000 400.000000
v 10.000010 -9.999996 0.000000
v 10.000010 -9.999996 400.000000
v 10.000010 0.000000 0.000000
v 10.000010 0.000000 400.000000
vn -1.0000 0.0000 0.0000
vn 0.0000 1.0000 0.0000
vn 1.0000 0.0000 0.0000
vn 0.0000 -1.0000 0.0000
vn 0.0000 0.0000 -1.0000
vn 0.0000 0.0000 1.0000
usemtl None
s off
f 34//25 35//25 33//25
f 36//26 39//26 35//26
f 40//27 37//27 39//27
f 38//28 33//28 37//28
f 39//29 33//29 35//29
f 36//30 38//30 40//30
f 34//25 36//25 35//25
f 36//26 40//26 39//26
f 40//27 38//27 37//27
f 38//28 34//28 33//28
f 39//29 37//29 33//29
f 36//30 34//30 38//30
o c_box_004
v 0.000000 -9.999996 0.000000
v 0.000000 -9.999996 400.000000
v 0.000000 0.000000 0.000000
v 0.000000 0.000000 400.000000
v 15.000010 -9.999996 0.000000
v 15.000010 -9.999996 400.000000
v 15.000010 0.000000 0.000000
v 15.000010 0.000000 400.000000
vn -1.0000 0.0000 0.0000
vn 0.0000 1.0000 0.0000
vn 1.0000 0.0000 0.0000
vn 0.0000 -1.0000 0.0000
vn 0.0000 0.0000 -1.0000
vn 0.0000 0.0000 1.0000
usemtl None
s off
f 42//31 43//31 41//31
f 44//32 47//32 43//32
f 48//33 45//33 47//33
f 46//34 41//34 45//34
f 47//35 41//35 43//35
f 44//36 46//36 48//36
f 42//31 44//31 43//31
f 44//32 48//32 47//32
f 48//33 46//33 45//33
f 46//34 42//34 41//34
f 47//35 45//35 41//35
f 44//36 42//36 46//36
o c_box_002
v 0.000000 -9.999996 0.000000
v 0.000000 -9.999996 400.000000
v 0.000000 0.000000 0.000000
v 0.000000 0.000000 400.000000
v 15.000010 -9.999996 0.000000
v 15.000010 -9.999996 400.000000
v 15.000010 0.000000 0.000000
v 15.000010 0.000000 400.000000
vn -1.0000 0.0000 0.0000
vn 0.0000 1.0000 0.0000
vn 1.0000 0.0000 0.0000
vn 0.0000 -1.0000 0.0000
vn 0.0000 0.0000 -1.0000
vn 0.0000 0.0000 1.0000
usemtl None
s off
f 50//37 51//37 49//37
f 52//38 55//38 51//38
f 56//39 53//39 55//39
f 54//40 49//40 53//40
f 55//41 49//41 51//41
f 52//42 54//42 56//42
f 50//37 52//37 51//37
f 52//38 56//38 55//38
f 56//39 54//39 53//39
f 54//40 50//40 49//40
f 55//41 53//41 49//41
f 52//42 50//42 54//42
o c_box_003
v 0.000000 -8.999996 -25.000000
v 0.000000 -8.999996 -0.000004
v 0.000000 0.000000 -25.000000
v 0.000000 0.000000 -0.000004
v 400.000000 -8.999996 -25.000000
v 400.000000 -8.999996 -0.000004
v 400.000000 0.000000 -25.000000
v 400.000000 0.000000 -0.000004
vn -1.0000 0.0000 0.0000
vn 0.0000 1.0000 0.0000
vn 1.0000 0.0000 0.0000
vn 0.0000 -1.0000 0.0000
vn 0.0000 0.0000 -1.0000
vn 0.0000 0.0000 1.0000
usemtl None
s off
f 58//43 59//43 57//43
f 60//44 63//44 59//44
f 64//45 61//45 63//45
f 62//46 57//46 61//46
f 63//47 57//47 59//47
f 60//48 62//48 64//48
f 58//43 60//43 59//43
f 60//44 64//44 63//44
f 64//45 62//45 61//45
f 62//46 58//46 57//46
f 63//47 61//47 57//47
f 60//48 58//48 62//48
o c_box_001
v 0.000000 -8.999996 0.000000
v 0.000000 -8.999996 24.999996
v 0.000000 0.000000 0.000000
v 0.000000 0.000000 24.999996
v 400.000000 -8.999996 0.000000
v 400.000000 -8.999996 24.999996
v 400.000000 0.000000 0.000000
v 400.000000 0.000000 24.999996
vn -1.0000 0.0000 0.0000
vn 0.0000 1.0000 0.0000
vn 1.0000 0.0000 0.0000
vn 0.0000 -1.0000 0.0000
vn 0.0000 0.0000 -1.0000
vn 0.0000 0.0000 1.0000
usemtl None
s off
f 66//49 67//49 65//49
f 68//50 71//50 67//50
f 72//51 69//51 71//51
f 70//52 65//52 69//52
f 71//53 65//53 67//53
f 68//54 70//54 72//54
f 66//49 68//49 67//49
f 68//50 72//50 71//50
f 72//51 70//51 69//51
f 70//52 66//52 65//52
f 71//53 69//53 65//53
f 68//54 66//54 70//54
o co_culling
v 0.000000 -9.999996 0.000000
v 0.000000 -9.999996 400.000000
v 0.000000 0.000000 0.000000
v 0.000000 0.000000 400.000000
v 400.000000 -9.999996 0.000000
v 400.000000 -9.999996 400.000000
v 400.000000 0.000000 0.000000
v 400.000000 0.000000 400.000000
vn -1.0000 0.0000 0.0000
vn 0.0000 1.0000 0.0000
vn 1.0000 0.0000 0.0000
vn 0.0000 -1.0000 0.0000
vn 0.0000 0.0000 -1.0000
vn 0.0000 0.0000 1.0000
usemtl None
s off
f 74//55 75//55 73//55
f 76//56 79//56 75//56
f 80//57 77//57 79//57
f 78//58 73//58 77//58
f 79//59 73//59 75//59
f 76//60 78//60 80//60
f 74//55 76//55 75//55
f 76//56 80//56 79//56
f 80//57 78//57 77//57
f 78//58 74//58 73//58
f 79//59 77//59 73//59
f 76//60 74//60 78//60
o g_g
v 95.000000 -10.000001 -0.000000
v 95.000000 -9.999979 400.000000
v 105.000008 -10.000001 -0.000000
v 105.000008 -9.999979 400.000000
v 195.000000 -10.000001 -0.000000
v 195.000000 -9.999979 400.000000
v 205.000015 -10.000001 -0.000000
v 205.000015 -9.999979 400.000000
v 295.000000 -10.000001 -0.000000
v 295.000000 -9.999979 400.000000
v 305.000031 -10.000001 -0.000000
v 305.000031 -9.999979 400.000000
v 15.000018 -10.000001 -0.000000
v 15.000018 -9.999979 400.000000
v 385.000000 -10.000001 -0.000000
v 385.000000 -9.999979 400.000000
v 400.000000 -9.999979 400.000000
v 400.000000 -10.000001 -0.000000
v 0.000000 -10.000001 -0.000000
v 0.000000 -9.999979 400.000000
v 95.000000 -0.000004 -0.000001
v 95.000000 0.000024 400.000000
v 105.000008 0.000024 400.000000
v 105.000008 -0.000004 -0.000001
v 195.000000 -0.000004 -0.000001
v 195.000000 0.000024 400.000000
v 205.000015 0.000024 400.000000
v 205.000015 -0.000004 -0.000001
v 295.000000 -0.000004 -0.000001
v 295.000000 0.000024 400.000000
v 305.000031 0.000024 400.000000
v 305.000031 -0.000004 -0.000001
v 15.000018 -0.000004 -0.000001
v 15.000018 0.000024 400.000000
v 385.000000 -0.000004 -0.000001
v 385.000000 0.000024 400.000000
v 400.000000 0.000024 400.000000
v 400.000000 -0.000004 -0.000001
v 0.000000 -0.000004 -0.000001
v 0.000000 0.000024 400.000000
v 400.000000 0.000006 375.000031
v 0.000000 0.000006 375.000061
v 400.000000 -8.999991 375.500031
v 400.000000 -8.499991 375.000031
v 0.000000 -8.499991 375.000061
v 0.000000 -8.999991 375.500061
v 0.000000 -8.999986 400.000061
v 400.000000 -8.999986 400.000000
v -0.000003 -8.999980 -0.000007
v 400.000000 -8.999980 -0.000115
v 400.000000 -8.999993 24.499874
v 400.000000 -8.499992 24.999861
v 0.000001 -8.499992 24.999969
v 0.000001 -8.999993 24.499958
v 400.000000 0.000005 24.999863
v 0.000001 0.000005 24.999971
v 400.000000 -10.000001 -0.000000
v 400.000000 -9.999979 400.000000
v 0.000000 -10.000001 -0.000000
v 0.000000 -9.999979 400.000000
v 400.000000 -8.999991 375.500031
v 0.000000 -8.999991 375.500061
v 0.000000 -8.499991 375.000061
v 400.000000 -8.499991 375.000031
v 0.000001 -8.999993 24.499958
v 400.000000 -8.999993 24.499874
v 400.000000 -8.499992 24.999861
v 0.000001 -8.499992 24.999969
v 95.000000 -10.000001 -0.000000
v 95.000000 -9.999979 400.000000
v 105.000008 -9.999979 400.000000
v 105.000008 -10.000001 -0.000000
v 195.000000 -10.000001 -0.000000
v 195.000000 -9.999979 400.000000
v 205.000015 -9.999979 400.000000
v 205.000015 -10.000001 -0.000000
v 295.000000 -10.000001 -0.000000
v 295.000000 -9.999979 400.000000
v 305.000031 -9.999979 400.000000
v 305.000031 -10.000001 -0.000000
v 15.000018 -9.999979 400.000000
v 15.000018 -10.000001 -0.000000
v 385.000000 -10.000001 -0.000000
v 385.000000 -9.999979 400.000000
v 400.000061 -5.000001 0.000048
v 385.857819 -0.000003 0.000048
v 0.000000 0.000038 385.857788
v 14.142132 -4.999967 400.000000
v 399.999969 -5.000002 14.142227
v 14.142132 0.000036 400.000000
v 399.999969 -0.000005 14.142227
v 385.857819 -4.999999 0.000048
v 0.000000 -4.999964 385.857788
v 0.000000 -4.999965 400.000092
v 400.000000 -4.800055 400.000061
v 399.999969 -0.000055 385.857819
v 14.142236 0.000091 0.000024
v 0.000010 -4.799914 14.142156
v 385.857788 -4.800053 399.999969
v 0.000010 0.000088 14.142156
v 385.857788 -0.000057 399.999969
v 399.999969 -4.800050 385.857819
v 14.142236 -4.799911 0.000024
v -0.000086 -4.799910 0.000048
vt 0.746094 2.000000
vt 0.871094 0.000000
vt 0.871094 2.000000
vt 1.000000 0.000000
vt 0.871094 2.000000
vt 0.871094 0.000000
vt 0.496094 2.000000
vt 0.750000 0.000000
vt 0.496094 0.000000
vt 0.500000 0.000000
vt 0.375000 2.000000
vt 0.375000 0.000000
vt 0.246094 2.000000
vt 0.375000 0.000000
vt 0.375000 2.000000
vt 0.250000 0.000000
vt -0.003906 2.000000
vt 0.250000 2.000000
vt 0.496094 2.000000
vt 0.621094 0.000000
vt 0.621094 2.000000
vt 0.750000 0.000000
vt 0.621094 2.000000
vt 0.621094 0.000000
vt 0.246094 2.000000
vt 0.500000 0.000000
vt 0.246094 0.000000
vt 0.753906 2.000000
vt 0.996094 0.000000
vt 0.753906 0.000000
vt 1.000000 0.000000
vt 0.746094 2.000000
vt 1.000000 2.000000
vt 0.996094 2.000000
vt 1.125000 0.000000
vt 1.125000 2.000000
vt 0.753906 2.000000
vt 0.738281 0.000000
vt 0.753906 0.000000
vt 1.000000 0.000000
vt 0.875000 2.000000
vt 0.875000 0.000000
vt 0.738281 0.000000
vt 0.621094 2.000000
vt 0.621094 0.000000
vt 0.750000 0.000000
vt 0.500000 2.000000
vt 0.750000 2.000000
vt 0.000000 2.000000
vt 0.125000 0.000000
vt 0.000000 0.000000
vt 0.375000 0.000000
vt 0.250000 2.000000
vt 0.250000 0.000000
vt 0.238281 -0.000000
vt 0.121094 2.000000
vt 0.121094 -0.000000
vt 0.253906 2.000000
vt 0.238281 -0.000000
vt 0.253906 0.000000
vt 0.253906 2.000000
vt 0.496094 -0.000000
vt 0.253906 0.000000
vt 0.746094 2.950000
vt 0.808594 0.221573
vt 0.808594 2.950000
vt 0.496094 0.221573
vt 0.433594 2.950000
vt 0.433594 0.221573
vt 0.496094 0.221573
vt 0.496094 2.950000
vt 0.746094 2.950000
vt 0.746094 2.950000
vt 0.808594 0.221573
vt 0.808594 2.950000
vt 0.496094 0.221573
vt 0.433594 2.950000
vt 0.433594 0.221573
vt 0.496094 0.221573
vt 0.496094 2.950000
vt 0.746094 0.221573
vt 0.746094 0.000000
vt 1.000000 2.000000
vt 0.750000 2.000000
vt 0.500000 2.000000
vt 0.246094 0.000000
vt -0.003906 0.000000
vt 0.496094 0.000000
vt 0.750000 2.000000
vt 0.500000 2.000000
vt 0.996094 2.000000
vt 0.746094 0.000000
vt 0.996094 0.000000
vt 0.738281 2.000000
vt 1.000000 2.000000
vt 0.738281 2.000000
vt 0.500000 0.000000
vt 0.125000 2.000000
vt 0.375000 2.000000
vt 0.238281 2.000000
vt 0.238281 2.000000
vt 0.496094 2.000000
vt 0.746094 0.221573
vt 0.496094 2.950000
vt 0.746094 0.221573
vt 0.621095 0.171584
vt 0.621094 3.000000
vt 0.746094 0.221573
vt 0.496094 2.950000
vt 0.746094 2.950000
vt 0.621095 0.171584
vt 0.621094 3.000000
vn -1.0000 0.0000 0.0000
vn 1.0000 0.0000 0.0000
vn 0.0000 -1.0000 0.0000
vn 0.0000 -0.7071 0.7071
vn 0.0000 -0.0000 1.0000
vn -0.0000 0.0000 -1.0000
vn -0.0000 -0.7071 -0.7071
vn -0.7071 0.0000 -0.7071
vn 0.7071 0.0000 0.7071
vn 0.7071 0.0000 -0.7071
vn -0.7071 0.0000 0.7071
usemtl mtl_heavybeam
s off
f 81/1/61 102/2/61 101/3/61
f 84/4/62 104/5/62 103/6/62
f 149/7/63 151/8/63 150/9/63
f 85/10/61 106/11/61 105/12/61
f 88/13/62 108/14/62 107/15/62
f 153/16/63 155/17/63 154/18/63
f 89/19/61 110/20/61 109/21/61
f 92/22/62 112/23/62 111/24/62
f 157/25/63 159/26/63 158/27/63
f 145/28/63 130/29/63 146/30/63
f 99/31/63 94/32/63 140/33/63
f 161/34/62 113/35/62 114/36/62
f 131/37/64 148/38/64 134/39/64
f 163/40/61 116/41/61 115/42/61
f 133/43/65 135/44/65 136/45/65
f 95/46/63 138/47/63 96/48/63
f 117/49/62 98/50/62 118/51/62
f 139/52/61 120/53/61 119/54/61
f 124/55/66 122/56/66 121/57/66
f 142/58/67 144/59/67 141/60/67
f 123/61/63 127/62/63 126/63/63
f 172/64/68 167/65/68 166/66/68
f 168/67/69 171/68/69 170/69/69
f 173/70/63 172/71/63 169/72/63
f 182/73/70 177/74/70 176/75/70
f 178/76/71 181/77/71 180/78/71
f 183/79/63 182/80/63 178/81/63
f 81/1/61 82/82/61 102/2/61
f 84/4/62 83/83/62 104/5/62
f 149/7/63 152/84/63 151/8/63
f 85/10/61 86/85/61 106/11/61
f 88/13/62 87/86/62 108/14/62
f 153/16/63 156/87/63 155/17/63
f 89/19/61 90/88/61 110/20/61
f 92/22/62 91/89/62 112/23/62
f 157/25/63 160/90/63 159/26/63
f 145/28/63 129/91/63 130/29/63
f 99/31/63 93/92/63 94/32/63
f 161/34/62 162/93/62 113/35/62
f 131/37/64 147/94/64 148/38/64
f 163/40/61 164/95/61 116/41/61
f 133/43/65 132/96/65 135/44/65
f 95/46/63 137/97/63 138/47/63
f 117/49/62 97/98/62 98/50/62
f 139/52/61 100/99/61 120/53/61
f 124/55/66 125/100/66 122/56/66
f 142/58/67 143/101/67 144/59/67
f 123/61/63 128/102/63 127/62/63
f 172/64/68 173/103/68 167/65/68
f 168/67/69 169/104/69 171/68/69
f 169/72/63 168/105/63 173/70/63
f 174/106/63 173/70/63 168/105/63
f 172/71/63 165/107/63 169/72/63
f 182/73/70 183/108/70 177/74/70
f 178/76/71 179/109/71 181/77/71
f 179/110/63 178/81/63 182/80/63
f 184/111/63 183/79/63 178/81/63
f 182/80/63 175/112/63 179/110/63
l 116 117
l 118 115
l 120 114
l 113 119
l 110 111
l 112 109
l 106 107
l 108 105
l 102 103
l 104 101
