# Blender v2.79 (sub 0) OBJ File: 'zom_int_flesh_basement_wall_4m.blend'
# www.blender.org
mtllib zom_int_flesh_basement_wall_4m.mtl
o c_box_001
v 0.000002 0.000000 0.000004
v 0.000002 0.000000 400.000000
v 0.000002 50.000000 0.000004
v 0.000002 50.000000 400.000000
v 400.000000 0.000000 0.000004
v 400.000000 0.000000 400.000000
v 400.000000 50.000000 0.000004
v 400.000000 50.000000 400.000000
vn -1.0000 0.0000 0.0000
vn 0.0000 1.0000 0.0000
vn 1.0000 0.0000 0.0000
vn 0.0000 -1.0000 0.0000
vn 0.0000 0.0000 -1.0000
vn 0.0000 0.0000 1.0000
usemtl None
s off
f 2//1 3//1 1//1
f 4//2 7//2 3//2
f 8//3 5//3 7//3
f 6//4 1//4 5//4
f 7//5 1//5 3//5
f 4//6 6//6 8//6
f 2//1 4//1 3//1
f 4//2 8//2 7//2
f 8//3 6//3 5//3
f 6//4 2//4 1//4
f 7//5 5//5 1//5
f 4//6 2//6 6//6
o co_culling
v 0.000002 0.000000 0.000004
v 0.000002 0.000000 400.000000
v 0.000002 50.000000 0.000004
v 0.000002 50.000000 400.000000
v 400.000000 0.000000 0.000004
v 400.000000 0.000000 400.000000
v 400.000000 50.000000 0.000004
v 400.000000 50.000000 400.000000
vn -1.0000 0.0000 0.0000
vn 0.0000 1.0000 0.0000
vn 1.0000 0.0000 0.0000
vn 0.0000 -1.0000 0.0000
vn 0.0000 0.0000 -1.0000
vn 0.0000 0.0000 1.0000
usemtl None
s off
f 10//7 11//7 9//7
f 12//8 15//8 11//8
f 16//9 13//9 15//9
f 14//10 9//10 13//10
f 15//11 9//11 11//11
f 12//12 14//12 16//12
f 10//7 12//7 11//7
f 12//8 16//8 15//8
f 16//9 14//9 13//9
f 14//10 10//10 9//10
f 15//11 13//11 9//11
f 12//12 10//12 14//12
o g_wall_cobble
v 0.000000 0.000000 400.000000
v 400.000000 0.000000 400.000000
v 400.000000 0.000000 0.000000
v 0.000000 0.000000 0.000000
v 0.000000 50.000000 400.000000
v 400.000000 50.000000 400.000000
v 400.000000 50.000000 0.000000
v 0.000000 50.000000 0.000000
vt 0.500000 2.500000
vt -1.500000 0.500000
vt 0.500000 0.500000
vt -1.500000 0.500000
vt 0.500000 2.500000
vt 0.500000 0.500000
vt -1.500000 2.500000
vt -1.500000 2.500000
vn 0.0000 -1.0000 0.0000
vn 0.0000 1.0000 0.0000
usemtl mtl_cobble
s off
f 18/1/13 20/2/13 19/3/13
f 24/4/14 22/5/14 23/6/14
f 18/1/13 17/7/13 20/2/13
f 24/4/14 21/8/14 22/5/14
