# Blender v2.79 (sub 0) OBJ File: 'zom_int_flesh_basement_wall_4m_vent.blend'
# www.blender.org
mtllib zom_int_flesh_basement_wall_4m_vent.mtl
o c_box_009
v 0.000002 0.000000 0.000004
v 0.000002 0.000000 9.999999
v 0.000002 170.000000 0.000004
v 0.000002 170.000000 9.999999
v 199.999985 0.000000 0.000004
v 199.999985 0.000000 9.999999
v 199.999985 170.000000 0.000004
v 199.999985 170.000000 9.999999
vn -1.0000 0.0000 0.0000
vn 0.0000 1.0000 0.0000
vn 1.0000 0.0000 0.0000
vn 0.0000 -1.0000 0.0000
vn 0.0000 0.0000 -1.0000
vn 0.0000 0.0000 1.0000
usemtl None
s off
f 2//1 3//1 1//1
f 4//2 7//2 3//2
f 8//3 5//3 7//3
f 6//4 1//4 5//4
f 7//5 1//5 3//5
f 4//6 6//6 8//6
f 2//1 4//1 3//1
f 4//2 8//2 7//2
f 8//3 6//3 5//3
f 6//4 2//4 1//4
f 7//5 5//5 1//5
f 4//6 2//6 6//6
o c_box_008
v 0.000002 0.000000 0.000004
v 0.000002 0.000000 25.000000
v 0.000002 170.000000 0.000004
v 0.000002 170.000000 25.000000
v 199.999985 0.000000 0.000004
v 199.999985 0.000000 25.000000
v 199.999985 170.000000 0.000004
v 199.999985 170.000000 25.000000
vn -1.0000 0.0000 0.0000
vn 0.0000 1.0000 0.0000
vn 1.0000 0.0000 0.0000
vn 0.0000 -1.0000 0.0000
vn 0.0000 0.0000 -1.0000
vn 0.0000 0.0000 1.0000
usemtl None
s off
f 10//7 11//7 9//7
f 12//8 15//8 11//8
f 16//9 13//9 15//9
f 14//10 9//10 13//10
f 15//11 9//11 11//11
f 12//12 14//12 16//12
f 10//7 12//7 11//7
f 12//8 16//8 15//8
f 16//9 14//9 13//9
f 14//10 10//10 9//10
f 15//11 13//11 9//11
f 12//12 10//12 14//12
o c_box_007
v -9.999990 0.000000 0.000000
v -9.999990 0.000000 100.000000
v -9.999990 79.999992 0.000000
v -9.999990 79.999992 100.000000
v -0.000014 0.000000 0.000000
v -0.000014 0.000000 100.000000
v -0.000014 79.999992 0.000000
v -0.000014 79.999992 100.000000
vn -1.0000 0.0000 0.0000
vn 0.0000 1.0000 0.0000
vn 1.0000 0.0000 0.0000
vn 0.0000 -1.0000 0.0000
vn 0.0000 0.0000 -1.0000
vn 0.0000 0.0000 1.0000
usemtl None
s off
f 18//13 19//13 17//13
f 20//14 23//14 19//14
f 24//15 21//15 23//15
f 22//16 17//16 21//16
f 23//17 17//17 19//17
f 20//18 22//18 24//18
f 18//13 20//13 19//13
f 20//14 24//14 23//14
f 24//15 22//15 21//15
f 22//16 18//16 17//16
f 23//17 21//17 17//17
f 20//18 18//18 22//18
o c_box_006
v -9.999990 0.000000 0.000000
v -9.999990 0.000000 100.000000
v -9.999990 110.000000 0.000000
v -9.999990 110.000000 100.000000
v -0.000014 0.000000 0.000000
v -0.000014 0.000000 100.000000
v -0.000014 110.000000 0.000000
v -0.000014 110.000000 100.000000
vn -1.0000 0.0000 0.0000
vn 0.0000 1.0000 0.0000
vn 1.0000 0.0000 0.0000
vn 0.0000 -1.0000 0.0000
vn 0.0000 0.0000 -1.0000
vn 0.0000 0.0000 1.0000
usemtl None
s off
f 26//19 27//19 25//19
f 28//20 31//20 27//20
f 32//21 29//21 31//21
f 30//22 25//22 29//22
f 31//23 25//23 27//23
f 28//24 30//24 32//24
f 26//19 28//19 27//19
f 28//20 32//20 31//20
f 32//21 30//21 29//21
f 30//22 26//22 25//22
f 31//23 29//23 25//23
f 28//24 26//24 30//24
o c_box_005
v -9.999990 0.000000 0.000000
v -9.999991 0.000000 100.000000
v -9.999990 170.000015 0.000000
v -9.999991 170.000015 100.000000
v -0.000014 0.000000 0.000000
v -0.000014 0.000000 100.000000
v -0.000014 170.000015 0.000000
v -0.000014 170.000015 100.000000
vn -1.0000 0.0000 -0.0000
vn 0.0000 1.0000 0.0000
vn 1.0000 0.0000 0.0000
vn 0.0000 -1.0000 0.0000
vn 0.0000 0.0000 -1.0000
vn 0.0000 0.0000 1.0000
usemtl None
s off
f 34//25 35//25 33//25
f 36//26 39//26 35//26
f 40//27 37//27 39//27
f 38//28 33//28 37//28
f 39//29 33//29 35//29
f 36//30 38//30 40//30
f 34//25 36//25 35//25
f 36//26 40//26 39//26
f 40//27 38//27 37//27
f 38//28 34//28 33//28
f 39//29 37//29 33//29
f 36//30 34//30 38//30
o c_box_002
v 0.000002 0.000000 0.000004
v 0.000002 0.000000 25.000000
v 0.000002 50.000000 0.000004
v 0.000002 50.000000 25.000000
v 400.000000 0.000000 0.000004
v 400.000000 0.000000 25.000000
v 400.000000 50.000000 0.000004
v 400.000000 50.000000 25.000000
vn -1.0000 0.0000 0.0000
vn 0.0000 1.0000 0.0000
vn 1.0000 0.0000 0.0000
vn 0.0000 -1.0000 0.0000
vn 0.0000 0.0000 -1.0000
vn 0.0000 0.0000 1.0000
usemtl None
s off
f 42//31 43//31 41//31
f 44//32 47//32 43//32
f 48//33 45//33 47//33
f 46//34 41//34 45//34
f 47//35 41//35 43//35
f 44//36 46//36 48//36
f 42//31 44//31 43//31
f 44//32 48//32 47//32
f 48//33 46//33 45//33
f 46//34 42//34 41//34
f 47//35 45//35 41//35
f 44//36 42//36 46//36
o c_box_004
v -400.000000 0.000000 -275.000000
v -400.000000 0.000000 0.000000
v -400.000000 50.000000 -275.000000
v -400.000000 50.000000 0.000000
v -0.000014 0.000000 -275.000000
v -0.000014 0.000000 0.000000
v -0.000014 50.000000 -275.000000
v -0.000014 50.000000 0.000000
vn -1.0000 0.0000 0.0000
vn 0.0000 1.0000 0.0000
vn 1.0000 0.0000 0.0000
vn 0.0000 -1.0000 0.0000
vn 0.0000 0.0000 -1.0000
vn 0.0000 0.0000 1.0000
usemtl None
s off
f 50//37 51//37 49//37
f 52//38 55//38 51//38
f 56//39 53//39 55//39
f 54//40 49//40 53//40
f 55//41 49//41 51//41
f 52//42 54//42 56//42
f 50//37 52//37 51//37
f 52//38 56//38 55//38
f 56//39 54//39 53//39
f 54//40 50//40 49//40
f 55//41 53//41 49//41
f 52//42 50//42 54//42
o c_box_003
v -209.999985 0.000000 -400.000000
v -209.999985 0.000000 0.000000
v -209.999985 50.000000 -400.000000
v -209.999985 50.000000 0.000000
v -0.000014 0.000000 -400.000000
v -0.000014 0.000000 0.000000
v -0.000014 50.000000 -400.000000
v -0.000014 50.000000 0.000000
vn -1.0000 0.0000 0.0000
vn 0.0000 1.0000 0.0000
vn 1.0000 0.0000 0.0000
vn 0.0000 -1.0000 0.0000
vn 0.0000 0.0000 -1.0000
vn 0.0000 0.0000 1.0000
usemtl None
s off
f 58//43 59//43 57//43
f 60//44 63//44 59//44
f 64//45 61//45 63//45
f 62//46 57//46 61//46
f 63//47 57//47 59//47
f 60//48 62//48 64//48
f 58//43 60//43 59//43
f 60//44 64//44 63//44
f 64//45 62//45 61//45
f 62//46 58//46 57//46
f 63//47 61//47 57//47
f 60//48 58//48 62//48
o g_wall_concrete
v 89.999985 5.000000 124.999985
v 190.000000 5.000000 124.999985
v 89.999985 25.000000 24.999994
v 89.999985 25.000000 125.000000
v 190.000000 25.000000 125.000000
v 190.000000 25.000000 24.999994
v 89.999985 25.000000 125.000000
v 89.999985 25.000000 24.999994
v 188.768845 40.643452 125.000000
v 188.768845 40.643452 24.999994
v 185.105652 55.901707 125.000000
v 185.105652 55.901707 24.999994
v 179.100662 70.399055 125.000000
v 179.100662 70.399055 24.999994
v 170.901703 83.778534 125.000000
v 170.901703 83.778534 24.999994
v 160.710663 95.710693 125.000000
v 160.710663 95.710693 24.999994
v 88.441811 167.979553 24.999994
v 17.731125 97.268852 24.999994
v 88.441811 167.979553 24.999994
v 89.999985 5.000000 24.999977
v 190.000000 5.000000 24.999977
v 190.000000 25.000000 125.000000
v 190.000000 25.000000 24.999994
v 188.768845 40.643452 125.000000
v 188.768845 40.643452 24.999994
v 185.105652 55.901707 125.000000
v 185.105652 55.901707 24.999994
v 179.100662 70.399055 125.000000
v 179.100662 70.399055 24.999994
v 170.901703 83.778534 125.000000
v 170.901703 83.778534 24.999994
v 160.710663 95.710693 125.000000
v 160.710663 95.710693 24.999994
v 88.441811 167.979553 24.999994
v 160.710663 95.710693 200.000000
v 88.441811 167.979553 200.000000
v 160.710663 95.710693 200.000000
v 89.999985 24.999996 200.000000
v 88.441811 167.979553 200.000000
v 17.731125 97.268852 200.000000
v 89.999985 25.000000 125.000000
v 160.710663 95.710693 125.000000
v 160.710663 95.710693 200.000000
v 89.999985 24.999996 200.000000
v 17.731125 97.268852 24.999994
v 88.441811 167.979553 200.000000
v 17.731125 97.268852 200.000000
v 190.000000 5.000000 124.999985
v 190.000000 5.000000 24.999977
v 190.000000 25.000000 125.000000
v 190.000000 25.000000 24.999994
v 190.000000 25.000000 24.999994
v 89.999985 25.000000 24.999994
v 89.999985 5.000000 124.999985
v 190.000000 25.000000 125.000000
v 89.999985 25.000000 125.000000
v 89.999985 5.000000 24.999977
v 89.999985 25.000000 125.000000
v 89.999985 25.000000 24.999994
v 17.731125 97.268852 24.999994
v 89.999985 24.999996 200.000000
v 17.731125 97.268852 200.000000
vt 0.525000 0.125000
vt 0.625000 -0.375000
vt 0.625000 0.125000
vt -0.050000 0.525000
vt 0.450000 0.625000
vt 0.450000 0.525000
vt 0.950000 0.625000
vt 1.450000 0.625000
vt 1.443844 0.703217
vt 0.450000 0.625000
vt -0.050000 0.625000
vt 0.443844 0.703217
vt 1.425528 0.779509
vt 0.425528 0.779509
vt 0.395503 0.851995
vt 1.395503 0.851995
vt 1.354509 0.918893
vt 0.354509 0.918893
vt 0.303553 0.978553
vt 1.303553 0.978553
vt 0.588656 0.986344
vt -0.050000 0.625000
vt -0.057791 1.339898
vt 0.303553 0.978553
vt 0.625000 0.125000
vt 0.978553 0.500000
vt 0.978553 0.125000
vt 1.339898 0.625000
vt 0.986344 1.500000
vt 0.986344 0.625000
vt 1.450000 0.525000
vt 0.950000 0.625000
vt 0.950000 0.525000
vt 0.950000 0.125000
vt 0.588656 0.500000
vt 0.950000 0.500000
vt 0.525000 -0.375000
vt -0.050000 0.625000
vt 0.942209 1.339898
vt -0.411344 0.986344
vt 0.625000 0.500000
vt 1.339898 1.500000
vt 1.450000 0.625000
vt 0.950000 -0.375000
vt 0.588656 -0.375000
vt 1.339898 0.500000
vt 1.339898 -0.375000
vt 0.978553 0.125000
vt 0.625000 1.125000
vt 0.703217 0.625000
vt 0.625000 0.625000
vt 0.703217 1.125000
vt 0.779509 0.625000
vt 0.779509 1.125000
vt 0.851995 0.625000
vt 0.851995 1.125000
vt 0.918893 0.625000
vt 0.918893 1.125000
vt 0.978553 0.625000
vt 0.525000 1.125000
vt 0.625000 0.625000
vt 0.525000 0.625000
vt 0.978553 -0.375000
vt 0.978553 0.500000
vt 0.978553 1.125000
vt 0.625000 1.125000
vn 1.0000 0.0000 0.0000
vn 0.0000 0.0000 -1.0000
vn 0.0000 0.0000 1.0000
vn -0.7071 0.7071 0.0000
vn 0.7071 -0.7071 0.0000
vn 0.7071 0.7071 0.0000
vn -0.7071 -0.7071 0.0000
vn -0.7254 -0.6883 0.0000
vn -0.9969 -0.0784 0.0000
vn -0.9877 -0.1564 0.0000
vn -0.9510 -0.3090 0.0000
vn -0.8910 -0.4540 0.0000
vn -0.8090 -0.5878 0.0000
vn -0.7343 -0.6788 0.0000
vn -1.0000 0.0000 0.0000
usemtl mtl_concrete
s off
f 65/1/49 125/2/49 124/3/49
f 120/4/50 121/5/50 66/6/50
f 72/7/51 70/8/51 74/9/51
f 69/10/50 71/11/50 73/12/50
f 72/7/51 74/9/51 76/13/51
f 73/12/50 71/11/50 75/14/50
f 75/14/50 71/11/50 77/15/50
f 72/7/51 76/13/51 78/16/51
f 72/7/51 78/16/51 80/17/51
f 77/15/50 71/11/50 79/18/50
f 79/18/50 71/11/50 81/19/50
f 72/7/51 80/17/51 82/20/51
f 82/20/51 84/21/51 72/7/51
f 104/22/50 105/23/50 103/24/50
f 107/25/52 109/26/52 108/27/52
f 85/28/53 113/29/53 111/30/53
f 87/31/51 119/32/51 86/33/51
f 68/34/54 128/35/54 127/36/54
f 65/1/49 123/37/49 125/2/49
f 120/4/50 122/38/50 121/5/50
f 82/20/51 83/39/51 84/21/51
f 104/22/50 106/40/50 105/23/50
f 107/25/52 110/41/52 109/26/52
f 85/28/53 112/42/53 113/29/53
f 87/31/51 118/43/51 119/32/51
f 68/34/54 67/44/54 126/45/54
f 126/45/54 128/35/54 68/34/54
s 1
f 102/46/55 100/47/55 98/48/56
f 88/49/57 91/50/58 89/51/57
f 90/52/58 93/53/59 91/50/58
f 92/54/59 95/55/60 93/53/59
f 94/56/60 97/57/61 95/55/60
f 96/58/61 99/59/62 97/57/61
f 114/60/63 117/61/63 115/62/63
f 99/63/62 98/48/56 100/47/55
f 101/64/55 102/46/55 98/48/56
f 88/49/57 90/52/58 91/50/58
f 90/52/58 92/54/59 93/53/59
f 92/54/59 94/56/60 95/55/60
f 94/56/60 96/58/61 97/57/61
f 96/58/61 98/65/56 99/59/62
f 114/60/63 116/66/63 117/61/63
o c_box_001
v 0.000002 0.000000 0.000004
v 0.000002 0.000000 400.000000
v 0.000002 50.000000 0.000004
v 0.000002 50.000000 400.000000
v 89.999985 0.000000 0.000004
v 89.999985 0.000000 400.000000
v 89.999985 50.000000 0.000004
v 89.999985 50.000000 400.000000
vn -1.0000 0.0000 0.0000
vn 0.0000 1.0000 0.0000
vn 1.0000 0.0000 0.0000
vn 0.0000 -1.0000 0.0000
vn 0.0000 0.0000 -1.0000
vn 0.0000 0.0000 1.0000
usemtl None
s off
f 130//64 131//64 129//64
f 132//65 135//65 131//65
f 136//66 133//66 135//66
f 134//67 129//67 133//67
f 135//68 129//68 131//68
f 132//69 134//69 136//69
f 130//64 132//64 131//64
f 132//65 136//65 135//65
f 136//66 134//66 133//66
f 134//67 130//67 129//67
f 135//68 133//68 129//68
f 132//69 130//69 134//69
o co_culling
v 0.000002 0.000000 0.000004
v 0.000002 0.000000 400.000000
v 0.000002 170.000000 0.000004
v 0.000002 170.000000 400.000000
v 400.000000 0.000000 0.000004
v 400.000000 0.000000 400.000000
v 400.000000 170.000000 0.000004
v 400.000000 170.000000 400.000000
vn -1.0000 0.0000 0.0000
vn 0.0000 1.0000 0.0000
vn 1.0000 0.0000 0.0000
vn 0.0000 -1.0000 0.0000
vn 0.0000 0.0000 -1.0000
vn 0.0000 0.0000 1.0000
usemtl None
s off
f 138//70 139//70 137//70
f 140//71 143//71 139//71
f 144//72 141//72 143//72
f 142//73 137//73 141//73
f 143//74 137//74 139//74
f 140//75 142//75 144//75
f 138//70 140//70 139//70
f 140//71 144//71 143//71
f 144//72 142//72 141//72
f 142//73 138//73 137//73
f 143//74 141//74 137//74
f 140//75 138//75 142//75
o g_wall_cobble
v 89.999985 5.000000 24.999977
v 190.000000 5.000000 24.999977
v 89.999985 0.000000 24.999977
v 190.000000 0.000000 24.999977
v 190.000000 0.000000 24.999977
v 89.999985 0.000000 124.999985
v 190.000000 0.000000 124.999985
v 190.000000 0.000000 124.999985
v 0.000000 0.000000 400.000000
v 400.000000 0.000000 400.000000
v 400.000000 0.000000 0.000000
v 0.000000 0.000000 0.000000
v 190.000000 0.000000 124.999985
v 190.000000 0.000000 24.999977
v 89.999985 0.000000 124.999985
v 89.999985 0.000000 24.999977
v 89.999985 0.000000 124.999985
v 89.999985 0.000000 24.999977
v 89.999985 5.000000 124.999985
v 89.999985 5.000000 24.999977
v 190.000000 5.000000 124.999985
v 89.999985 5.000000 124.999985
v 190.000000 5.000000 124.999985
v 190.000000 5.000000 24.999977
vt 0.500000 -0.375000
vt 0.525000 0.125000
vt 0.500000 0.125000
vt 0.450000 0.625000
vt -0.050000 0.650000
vt -0.050000 0.625000
vt 0.950000 0.150000
vt 1.450000 0.125000
vt 1.450000 0.150000
vt 0.500000 1.125000
vt 0.525000 0.625000
vt 0.500000 0.625000
vt 0.450000 0.125000
vt 1.500000 -0.500000
vt 1.500000 1.500000
vt 1.450000 0.125000
vt 0.500000 1.500000
vt 0.950000 0.125000
vt 0.450000 0.625000
vt -0.500000 0.500000
vt 1.500000 0.500000
vt 0.950000 1.125000
vt 0.500000 0.500000
vt 0.950000 0.625000
vt 0.525000 -0.375000
vt 0.450000 0.650000
vt 0.950000 0.125000
vt 0.525000 1.125000
vt 0.450000 -0.375000
vt 2.500000 1.500000
vt -0.050000 0.625000
vt 0.500000 2.500000
vn 1.0000 0.0000 0.0000
vn 0.0000 0.0000 1.0000
vn 0.0000 0.0000 -1.0000
vn -1.0000 0.0000 0.0000
vn 0.0000 -1.0000 0.0000
usemtl mtl_cobble
s off
f 162/67/76 163/68/76 161/69/76
f 148/70/77 145/71/77 147/72/77
f 150/73/78 165/74/78 152/75/78
f 151/76/79 168/77/79 149/78/79
f 157/79/80 155/80/80 154/81/80
f 157/82/80 153/83/80 159/84/80
f 158/85/80 156/86/80 155/87/80
f 159/88/80 156/89/80 160/90/80
f 162/67/76 164/91/76 163/68/76
f 148/70/77 146/92/77 145/71/77
f 150/73/78 166/93/78 165/74/78
f 151/76/79 167/94/79 168/77/79
f 157/79/80 158/95/80 155/80/80
f 157/82/80 154/96/80 153/83/80
f 158/85/80 160/97/80 156/86/80
f 159/88/80 153/98/80 156/89/80
