# Blender v2.79 (sub 0) OBJ File: 'zom_weapon_decal.blend'
# www.blender.org
mtllib zom_weapon_decal.mtl
o g_glow_wide
v -50.000000 0.250009 -25.000000
v 49.999992 0.249982 -25.000000
v -50.000000 0.250009 25.000000
v 49.999992 0.249991 25.000000
vt 1.000000 1.000000
vt 0.000000 0.000000
vt 1.000000 0.000000
vt 0.000000 1.000000
vn 0.0000 1.0000 0.0000
usemtl mtl_glow
s off
f 3/1/1 2/2/1 1/3/1
f 3/1/1 4/4/1 2/2/1
o g_decal
v 25.000000 0.499998 -25.000000
v -25.000000 0.500005 -25.000000
v 25.000000 0.499995 25.000000
v -25.000000 0.500002 25.000000
vt 1.000000 0.000000
vt 0.000000 1.000000
vt 0.000000 0.000000
vt 1.000000 1.000000
vn 0.0000 1.0000 0.0000
usemtl mtl_decal
s off
f 6/5/2 7/6/2 5/7/2
f 6/5/2 8/8/2 7/6/2
o g_decal_wide
v 50.000000 0.499994 -25.000000
v -50.000000 0.500009 -25.000000
v 50.000000 0.499991 25.000000
v -50.000000 0.500006 25.000000
vt 1.000000 0.000000
vt 0.000000 1.000000
vt 0.000000 0.000000
vt 1.000000 1.000000
vn 0.0000 1.0000 0.0000
usemtl mtl_decal
s off
f 10/9/3 11/10/3 9/11/3
f 10/9/3 12/12/3 11/10/3
o g_glow
v 25.000000 0.249997 -25.000000
v -25.000000 0.250005 -25.000000
v 25.000000 0.249995 25.000000
v -25.000000 0.250003 25.000000
vt 1.000000 0.000000
vt 0.000000 1.000000
vt 0.000000 0.000000
vt 1.000000 1.000000
vn 0.0000 1.0000 0.0000
usemtl mtl_glow
s off
f 14/13/4 15/14/4 13/15/4
f 14/13/4 16/16/4 15/14/4
