#
# object g_contour_blocker
#

o g_contour_blocker
v -2500.000000 187.977900 -2500.000000
v 2500.000000 187.977900 2500.000000
v 2500.000000 187.977900 -2500.000000
v -2500.000000 187.977900 2500.000000
v 2500.000000 187.977900 2500.000000
v -2500.000000 187.977900 -2500.000000
v 2500.000000 187.977900 -2500.000000
v -2500.000000 187.977900 2500.000000
# 8 vertices

# 0 UVs

vn 0.000000 1.000000 0.000000
vn 0.000000 1.000000 0.000000
vn 0.000000 1.000000 0.000000
vn 0.000000 1.000000 0.000000
vn 0.000000 -1.000000 0.000000
vn 0.000000 -1.000000 0.000000
vn 0.000000 -1.000000 0.000000
vn 0.000000 -1.000000 0.000000
# 8 Normals

g g_contour_blocker
f 1//1 2//2 3//3
f 4//4 2//2 1//1
f 5//5 6//6 7//7
f 8//8 6//6 5//5
# 4 Faces

