# Blender v2.79 (sub 0) OBJ File: 'zom_dah_floor_tilestemp.blend'
# www.blender.org
mtllib zom_dah.mtl
o c_box_001
v 400.000031 -400.000092 -10.000002
v 400.000031 -400.000092 0.000000
v 0.000000 -400.000061 -10.000002
v 0.000000 -400.000061 0.000000
v 400.000061 -0.000078 -10.000002
v 400.000061 -0.000078 0.000000
v 0.000030 -0.000048 -10.000002
v 0.000030 -0.000048 0.000000
vn 0.0000 1.0000 0.0000
vn 1.0000 -0.0000 0.0000
vn -0.0000 -1.0000 0.0000
vn -1.0000 0.0000 0.0000
vn 0.0000 0.0000 1.0000
vn 0.0000 0.0000 -1.0000
usemtl None
s off
f 3//1 2//1 1//1
f 7//2 4//2 3//2
f 5//3 8//3 7//3
f 1//4 6//4 5//4
f 1//5 7//5 3//5
f 6//6 4//6 8//6
f 3//1 4//1 2//1
f 7//2 8//2 4//2
f 5//3 6//3 8//3
f 1//4 2//4 6//4
f 1//5 5//5 7//5
f 6//6 2//6 4//6
o g_floor_a
v 399.999908 -399.999817 0.000000
v -0.000191 -399.999817 0.000000
v 399.999908 0.000000 0.000000
v -0.000191 0.000000 0.000000
vt 0.500000 2.500000
vt -1.500001 0.500001
vt 0.500000 0.500001
vt -1.500001 2.500000
vn 0.0000 0.0000 1.0000
usemtl mtl_floor_wood
s off
f 11/1/7 10/2/7 9/3/7
f 11/1/7 12/4/7 10/2/7
